<svg width="131" height="109" viewBox="0 0 131 109" fill="none" xmlns="http://www.w3.org/2000/svg">
<g clip-path="url(#clip0_264_521)">
<g clip-path="url(#clip1_264_521)">
<path d="M17.8627 22.0638C16.1094 24.003 13.4396 24.9727 9.85325 24.9727H0.0506521V0.5857H9.85325C13.413 0.5857 16.0695 1.56862 17.8228 3.53445C19.6027 5.47372 20.4927 8.60842 20.4927 12.9386C20.4927 17.0828 19.616 20.1245 17.8627 22.0638ZM12.7223 6.28396C11.8722 5.75265 10.6635 5.487 9.09614 5.487H5.50982V20.3901H9.09614C10.4775 20.3901 11.58 20.1909 12.4035 19.7924C13.2536 19.3674 13.8912 18.6235 14.3162 17.5609C14.7678 16.4718 14.9936 14.931 14.9936 12.9386C14.9936 11.1321 14.821 9.6976 14.4756 8.63499C14.1568 7.57238 13.5724 6.7887 12.7223 6.28396ZM30.1035 0.5857V24.9727H24.6443V0.5857H30.1035ZM54.9583 23.2193C52.78 24.6539 49.9109 25.3711 46.3512 25.3711C42.393 25.3711 39.3911 24.3085 37.3455 22.1833C35.3266 20.0581 34.3171 17.0296 34.3171 13.098C34.3171 8.95377 35.3399 5.77922 37.3854 3.5743C39.4575 1.34281 42.5523 0.227068 46.67 0.227068C49.4859 0.227068 51.8104 0.559135 53.6434 1.22327V6.36366C51.7838 5.61983 49.5922 5.24791 47.0684 5.24791C42.2601 5.24791 39.856 7.8646 39.856 13.098C39.856 15.5154 40.3873 17.3218 41.4499 18.5173C42.5391 19.7127 44.1728 20.3104 46.3512 20.3104C47.8388 20.3104 49.1937 20.0846 50.4157 19.633V14.8513H45.355V11.1454H54.9583V23.2193ZM64.8926 0.5857V24.9727H59.4335V0.5857H64.8926ZM80.7817 4.96898V24.9727H75.3624V4.96898H68.5484V0.5857H87.6355V4.96898H80.7817ZM94.8539 19.2345L92.8217 24.9727H87.1234L95.89 0.5857H101.748L110.514 24.9727H104.896L102.784 19.2345H94.8539ZM102.106 15.0505L98.8387 6.24411L95.5314 15.0505H102.106ZM131.108 20.3901V24.9727H114.73V0.5857H120.189V20.3901H131.108Z" fill="#E35700"/>
<path d="M2.99663 28.7044V41.9746H0.0260104V28.7044H2.99663ZM14.5917 39.481V41.9746H5.67978V28.7044H8.65041V39.481H14.5917ZM25.4757 39.481V41.9746H16.5638V28.7044H19.5344V39.481H25.4757ZM37.1837 40.8254C36.1718 41.7361 34.7913 42.1914 33.0422 42.1914C31.2786 42.1914 29.8909 41.7433 28.879 40.8471C27.8671 39.9364 27.3611 38.6354 27.3611 36.9441V28.7044H30.3101V36.6405C30.3101 37.5512 30.5414 38.2451 31.0039 38.7221C31.481 39.1847 32.1604 39.416 33.0422 39.416C33.924 39.416 34.5962 39.1847 35.0587 38.7221C35.5213 38.2451 35.7526 37.5512 35.7526 36.6405V28.7044H38.7015V36.9441C38.7015 38.6209 38.1956 39.9147 37.1837 40.8254ZM49.0591 41.1723C48.1918 41.8517 46.9197 42.1914 45.2428 42.1914C44.4333 42.1914 43.6744 42.1192 42.9661 41.9746C42.2577 41.8445 41.6506 41.6566 41.1447 41.4108V38.9389C41.7373 39.1991 42.3661 39.416 43.0311 39.5894C43.6961 39.7484 44.3321 39.828 44.9392 39.828C46.5438 39.828 47.3461 39.3148 47.3461 38.2884C47.3461 37.8114 47.1293 37.4428 46.6956 37.1826C46.2619 36.9079 45.4958 36.6044 44.3972 36.2719C43.5154 35.9972 42.8215 35.6937 42.3156 35.3612C41.8241 35.0287 41.4627 34.6312 41.2314 34.1686C41.0146 33.6916 40.9061 33.0989 40.9061 32.3906C40.9061 31.1329 41.3253 30.1716 42.1638 29.5067C43.0022 28.8417 44.2598 28.5092 45.9367 28.5092C46.5438 28.5092 47.2088 28.5671 47.9315 28.6827C48.6543 28.7983 49.2326 28.9284 49.6662 29.073V31.5666C48.6254 31.104 47.5485 30.8727 46.4354 30.8727C45.597 30.8727 44.9682 30.9956 44.5489 31.2413C44.1297 31.4726 43.9201 31.8412 43.9201 32.3472C43.9201 32.7664 44.1008 33.0917 44.4622 33.3229C44.8381 33.5542 45.5391 33.8072 46.5655 34.0819C47.5629 34.3421 48.3363 34.6601 48.8856 35.0359C49.4494 35.4118 49.8325 35.8599 50.0348 36.3803C50.2517 36.8862 50.3601 37.5151 50.3601 38.2668C50.3601 39.5244 49.9264 40.4929 49.0591 41.1723ZM58.2281 31.0896V41.9746H55.2792V31.0896H51.5713V28.7044H61.9576V31.0896H58.2281ZM68.3566 37.7247H66.8821V41.9746H63.9115V28.7044H70.0479C71.4646 28.7044 72.5271 29.1091 73.2354 29.9186C73.9437 30.7282 74.2979 31.8268 74.2979 33.2145C74.2979 34.1541 74.081 34.9564 73.6474 35.6214C73.2137 36.2863 72.6066 36.7851 71.826 37.1175C72.0283 37.2187 72.1801 37.3488 72.2813 37.5078C72.397 37.6524 72.5054 37.8548 72.6066 38.115L74.2111 41.9746H71.1104L69.7227 38.5486C69.5926 38.2306 69.4336 38.0138 69.2456 37.8981C69.0722 37.7825 68.7758 37.7247 68.3566 37.7247ZM71.3272 33.2145C71.3272 31.928 70.7057 31.2847 69.4625 31.2847H66.8821V35.1443H69.289C70.6478 35.1443 71.3272 34.5011 71.3272 33.2145ZM79.4588 38.8522L78.353 41.9746H75.2523L80.0226 28.7044H83.2101L87.9804 41.9746H84.9231L83.7738 38.8522H79.4588ZM83.4052 36.5754L81.6272 31.7834L79.8275 36.5754H83.4052ZM94.3953 31.0896V41.9746H91.4464V31.0896H87.7385V28.7044H98.1249V31.0896H94.3953ZM103.049 28.7044V41.9746H100.079V28.7044H103.049ZM117.68 35.4045C117.68 39.9291 115.627 42.1914 111.522 42.1914C107.402 42.1914 105.342 39.9291 105.342 35.4045C105.342 32.9905 105.855 31.2413 106.882 30.1572C107.908 29.0585 109.455 28.5092 111.522 28.5092C113.589 28.5092 115.129 29.0585 116.141 30.1572C117.167 31.2413 117.68 32.9905 117.68 35.4045ZM109.115 38.4619C109.636 39.1124 110.438 39.4377 111.522 39.4377C112.606 39.4377 113.401 39.1124 113.907 38.4619C114.428 37.7969 114.688 36.7778 114.688 35.4045C114.688 33.9156 114.435 32.8531 113.929 32.2171C113.423 31.5666 112.621 31.2413 111.522 31.2413C110.423 31.2413 109.621 31.5666 109.115 32.2171C108.609 32.8531 108.356 33.9156 108.356 35.4045C108.356 36.7778 108.609 37.7969 109.115 38.4619ZM122.954 33.9301V41.9746H119.983V28.7044H122.52L128.028 36.7706V28.7044H130.999V41.9746H128.44L122.954 33.9301Z" fill="#E35700"/>
<path d="M8.19535 50.3035C8.19535 53.3186 6.82748 54.8261 4.09173 54.8261C1.34635 54.8261 -0.0263372 53.3186 -0.0263372 50.3035C-0.0263372 48.6948 0.315631 47.5292 0.999568 46.8067C1.6835 46.0746 2.71423 45.7086 4.09173 45.7086C5.46924 45.7086 6.49514 46.0746 7.16945 46.8067C7.85338 47.5292 8.19535 48.6948 8.19535 50.3035ZM2.48785 52.3408C2.83464 52.7743 3.36926 52.9911 4.09173 52.9911C4.8142 52.9911 5.34401 52.7743 5.68116 52.3408C6.02795 51.8977 6.20134 51.2186 6.20134 50.3035C6.20134 49.3113 6.03276 48.6033 5.69561 48.1794C5.35846 47.7459 4.82383 47.5292 4.09173 47.5292C3.35963 47.5292 2.825 47.7459 2.48785 48.1794C2.1507 48.6033 1.98212 49.3113 1.98212 50.3035C1.98212 51.2186 2.1507 51.8977 2.48785 52.3408ZM11.7098 51.0837V54.6816H9.73026V45.8386H15.7123V47.4281H11.7098V49.4365H15.221V51.0837H11.7098ZM22.7153 52.6009L21.9784 54.6816H19.9121L23.091 45.8386H25.215L28.3939 54.6816H26.3565L25.5907 52.6009H22.7153ZM25.3451 51.0837L24.1602 47.8904L22.9609 51.0837H25.3451ZM36.3816 53.6268C35.7458 54.33 34.7777 54.6816 33.4772 54.6816H29.9227V45.8386H33.4772C34.768 45.8386 35.7313 46.195 36.3671 46.9079C37.0125 47.6111 37.3352 48.7478 37.3352 50.3179C37.3352 51.8207 37.0173 52.9236 36.3816 53.6268ZM34.5176 47.9049C34.2093 47.7122 33.771 47.6159 33.2027 47.6159H31.9022V53.02H33.2027C33.7036 53.02 34.1034 52.9477 34.402 52.8032C34.7102 52.6491 34.9414 52.3794 35.0956 51.9941C35.2593 51.5991 35.3412 51.0404 35.3412 50.3179C35.3412 49.6629 35.2786 49.1427 35.1534 48.7574C35.0378 48.3721 34.8258 48.0879 34.5176 47.9049ZM46.3991 45.8386L43.2203 54.6816H41.0962L37.9174 45.8386H39.9836L42.1655 52.2108L44.3473 45.8386H46.3991ZM53.9265 53.0922V54.6816H47.8433V45.8386H53.9265V47.4281H49.8229V49.4365H53.4352V51.0837H49.8229V53.0922H53.9265ZM58.27 51.8496H57.2874V54.6816H55.3079V45.8386H59.397C60.341 45.8386 61.0491 46.1083 61.5211 46.6478C61.9931 47.1872 62.2291 47.9193 62.2291 48.8441C62.2291 49.4702 62.0846 50.0049 61.7956 50.448C61.5066 50.8911 61.102 51.2234 60.5819 51.445C60.7167 51.5124 60.8179 51.5991 60.8853 51.7051C60.9624 51.8014 61.0346 51.9363 61.102 52.1097L62.1713 54.6816H60.105L59.1803 52.3986C59.0936 52.1867 58.9876 52.0422 58.8624 51.9652C58.7468 51.8881 58.5493 51.8496 58.27 51.8496ZM60.2495 48.8441C60.2495 47.9868 59.8353 47.5581 59.0069 47.5581H57.2874V50.1301H58.8913C59.7968 50.1301 60.2495 49.7014 60.2495 48.8441ZM67.7479 47.4281V54.6816H65.7827V47.4281H63.3119V45.8386H70.2331V47.4281H67.7479ZM73.5147 45.8386V54.6816H71.5352V45.8386H73.5147ZM80.4756 54.147C79.8976 54.5998 79.0499 54.8261 77.9325 54.8261C77.3931 54.8261 76.8873 54.778 76.4153 54.6816C75.9433 54.5949 75.5387 54.4697 75.2016 54.306V52.6587C75.5965 52.8321 76.0156 52.9766 76.4587 53.0922C76.9018 53.1982 77.3256 53.2512 77.7302 53.2512C78.7995 53.2512 79.3341 52.9092 79.3341 52.2252C79.3341 51.9074 79.1896 51.6617 78.9006 51.4883C78.6116 51.3053 78.1011 51.103 77.369 50.8815C76.7814 50.6984 76.319 50.4961 75.9818 50.2746C75.6543 50.053 75.4135 49.7881 75.2594 49.4799C75.1149 49.162 75.0426 48.767 75.0426 48.295C75.0426 47.457 75.322 46.8164 75.8807 46.3733C76.4394 45.9301 77.2775 45.7086 78.3949 45.7086C78.7995 45.7086 79.2426 45.7471 79.7242 45.8242C80.2059 45.9012 80.5912 45.9879 80.8802 46.0843V47.7459C80.1866 47.4377 79.469 47.2836 78.7272 47.2836C78.1685 47.2836 77.7495 47.3654 77.4701 47.5292C77.1908 47.6833 77.0511 47.929 77.0511 48.2661C77.0511 48.5455 77.1715 48.7622 77.4123 48.9163C77.6628 49.0705 78.13 49.239 78.8139 49.4221C79.4786 49.5955 79.994 49.8074 80.36 50.0578C80.7357 50.3083 80.991 50.6069 81.1258 50.9537C81.2703 51.2909 81.3426 51.7099 81.3426 52.2108C81.3426 53.0489 81.0536 53.6943 80.4756 54.147ZM88.9775 53.0922V54.6816H82.8943V45.8386H88.9775V47.4281H84.8739V49.4365H88.4862V51.0837H84.8739V53.0922H88.9775ZM92.3384 49.4943V54.6816H90.3589V45.8386H92.3095L94.6359 50.7948L96.9333 45.8386H98.884V54.6816H96.9189V49.4943L95.1849 53.15H94.0723L92.3384 49.4943ZM106.771 53.0922V54.6816H100.688V45.8386H106.771V47.4281H102.667V49.4365H106.28V51.0837H102.667V53.0922H106.771ZM110.132 49.3209V54.6816H108.152V45.8386H109.843L113.513 51.2138V45.8386H115.493V54.6816H113.788L110.132 49.3209ZM121.256 47.4281V54.6816H119.291V47.4281H116.82V45.8386H123.741V47.4281H121.256ZM129.99 54.147C129.412 54.5998 128.564 54.8261 127.447 54.8261C126.908 54.8261 126.402 54.778 125.93 54.6816C125.458 54.5949 125.053 54.4697 124.716 54.306V52.6587C125.111 52.8321 125.53 52.9766 125.973 53.0922C126.416 53.1982 126.84 53.2512 127.245 53.2512C128.314 53.2512 128.849 52.9092 128.849 52.2252C128.849 51.9074 128.704 51.6617 128.415 51.4883C128.126 51.3053 127.616 51.103 126.883 50.8815C126.296 50.6984 125.833 50.4961 125.496 50.2746C125.169 50.053 124.928 49.7881 124.774 49.4799C124.629 49.162 124.557 48.767 124.557 48.295C124.557 47.457 124.836 46.8164 125.395 46.3733C125.954 45.9301 126.792 45.7086 127.909 45.7086C128.314 45.7086 128.757 45.7471 129.239 45.8242C129.72 45.9012 130.106 45.9879 130.395 46.0843V47.7459C129.701 47.4377 128.983 47.2836 128.242 47.2836C127.683 47.2836 127.264 47.3654 126.985 47.5292C126.705 47.6833 126.566 47.929 126.566 48.2661C126.566 48.5455 126.686 48.7622 126.927 48.9163C127.177 49.0705 127.644 49.239 128.328 49.4221C128.993 49.5955 129.508 49.8074 129.874 50.0578C130.25 50.3083 130.505 50.6069 130.64 50.9537C130.785 51.2909 130.857 51.7099 130.857 52.2108C130.857 53.0489 130.568 53.6943 129.99 54.147Z" fill="#E35700"/>
</g>
<line x1="-9.6077e-09" y1="60.0991" x2="131" y2="60.0991" stroke="white" stroke-width="0.219799"/>
</g>
<path d="M8.66943 81.0486C8.01912 81.429 7.14796 81.6191 6.05593 81.6191H1.8596V70.3553H6.05593C7.12342 70.3553 7.98845 70.5516 8.65103 70.9443C9.31361 71.3246 9.79827 71.932 10.105 72.7664C10.4118 73.6007 10.5651 74.705 10.5651 76.0792C10.5651 77.3799 10.4118 78.4351 10.105 79.2449C9.81054 80.0547 9.33201 80.6559 8.66943 81.0486ZM8.1909 71.8645C7.66329 71.4841 6.88415 71.294 5.85347 71.294H2.92708V80.7173H5.85347C6.72464 80.7173 7.41789 80.5885 7.93323 80.3308C8.46084 80.0731 8.85348 79.613 9.11115 78.9504C9.38109 78.2756 9.51606 77.3185 9.51606 76.0792C9.51606 74.9995 9.43017 74.1222 9.25839 73.4473C9.08661 72.7725 8.73078 72.2449 8.1909 71.8645ZM19.6225 81.3431C18.8618 81.6498 18.052 81.8032 17.1931 81.8032C15.7084 81.8032 14.6225 81.4474 13.9354 80.7357C13.2606 80.0118 12.9231 78.9075 12.9231 77.4228C12.9231 74.5762 14.1931 73.1529 16.733 73.1529C17.8618 73.1529 18.7084 73.4596 19.2728 74.0731C19.8495 74.6866 20.1379 75.5026 20.1379 76.521V77.9566H13.917C13.9661 79.024 14.2544 79.8032 14.782 80.294C15.3219 80.7848 16.2054 81.0302 17.4323 81.0302C18.144 81.0302 18.8741 80.8829 19.6225 80.5885V81.3431ZM14.5612 74.7909C14.1317 75.3553 13.917 76.159 13.917 77.202H19.1992V76.4289C19.1992 75.6437 18.9968 75.0302 18.5919 74.5884C18.1992 74.1467 17.5857 73.9259 16.7514 73.9259C15.733 73.9259 15.0029 74.2142 14.5612 74.7909ZM29.1342 73.3369L25.9501 81.6191H24.717L21.5145 73.3369H22.6188L25.3243 80.6621L28.0667 73.3369H29.1342ZM37.2007 81.3431C36.44 81.6498 35.6302 81.8032 34.7713 81.8032C33.2866 81.8032 32.2007 81.4474 31.5136 80.7357C30.8387 80.0118 30.5013 78.9075 30.5013 77.4228C30.5013 74.5762 31.7713 73.1529 34.3111 73.1529C35.44 73.1529 36.2866 73.4596 36.851 74.0731C37.4277 74.6866 37.7161 75.5026 37.7161 76.521V77.9566H31.4952C31.5443 79.024 31.8326 79.8032 32.3602 80.294C32.9001 80.7848 33.7835 81.0302 35.0105 81.0302C35.7222 81.0302 36.4522 80.8829 37.2007 80.5885V81.3431ZM32.1393 74.7909C31.7099 75.3553 31.4952 76.159 31.4952 77.202H36.7774V76.4289C36.7774 75.6437 36.5749 75.0302 36.17 74.5884C35.7774 74.1467 35.1639 73.9259 34.3295 73.9259C33.3111 73.9259 32.5811 74.2142 32.1393 74.7909ZM42.952 81.656C42.6943 81.7541 42.3814 81.8032 42.0133 81.8032C41.498 81.8032 41.1053 81.6621 40.8354 81.3799C40.5777 81.0977 40.4489 80.6375 40.4489 79.9995V69.84H41.5164V79.9627C41.5164 80.3185 41.5655 80.5701 41.6636 80.7173C41.7741 80.8523 41.952 80.9198 42.1974 80.9198C42.5164 80.9198 42.7679 80.8891 42.952 80.8277V81.656ZM51.8723 80.7357C51.2466 81.4474 50.2527 81.8032 48.8907 81.8032C47.541 81.8032 46.5472 81.4412 45.9091 80.7173C45.2711 79.9934 44.9521 78.9136 44.9521 77.478C44.9521 76.0424 45.2711 74.9627 45.9091 74.2388C46.5472 73.5148 47.541 73.1529 48.8907 73.1529C50.2404 73.1529 51.2282 73.5148 51.8539 74.2388C52.492 74.9627 52.811 76.0424 52.811 77.478C52.811 78.9259 52.4981 80.0118 51.8723 80.7357ZM46.6821 80.0915C47.1239 80.6437 47.8601 80.9198 48.8907 80.9198C49.9214 80.9198 50.6637 80.6437 51.1177 80.0915C51.5717 79.5271 51.7987 78.6559 51.7987 77.478C51.7987 76.3001 51.5717 75.4351 51.1177 74.8829C50.676 74.3185 49.9337 74.0363 48.8907 74.0363C47.8723 74.0363 47.1361 74.3185 46.6821 74.8829C46.2404 75.4351 46.0196 76.3001 46.0196 77.478C46.0196 78.6559 46.2404 79.5271 46.6821 80.0915ZM57.8294 81.6007C57.3999 81.4535 56.9889 81.2388 56.5962 80.9566V85.3553H55.5287V73.3369H56.4122L56.5042 74.2572C56.8846 73.8768 57.3079 73.6007 57.7741 73.4289C58.2404 73.2449 58.7864 73.1529 59.4122 73.1529C61.8539 73.1529 63.0748 74.57 63.0748 77.4044C63.0748 78.7664 62.7619 79.84 62.1361 80.6253C61.5226 81.4106 60.5778 81.8032 59.3018 81.8032C58.7496 81.8032 58.2588 81.7357 57.8294 81.6007ZM57.6821 80.6989C58.0748 80.8461 58.5288 80.9198 59.0441 80.9198C60.0502 80.9198 60.8048 80.6375 61.3079 80.0731C61.811 79.4964 62.0625 78.613 62.0625 77.4228C62.0625 76.2572 61.8294 75.4044 61.3631 74.8645C60.9091 74.3124 60.1729 74.0363 59.1545 74.0363C58.1116 74.0363 57.2588 74.3921 56.5962 75.1038V80.0363C56.9398 80.3185 57.3018 80.5394 57.6821 80.6989ZM68.0923 74.3676C67.6138 74.5884 67.1843 74.8768 66.8039 75.2326V81.6191H65.7917V73.3369H66.7119L66.8039 74.3124C67.7487 73.5394 68.7549 73.1529 69.8224 73.1529C70.4358 73.1529 70.9144 73.251 71.2579 73.4473C71.6138 73.6437 71.8776 73.9381 72.0494 74.3308C72.9696 73.5455 74.031 73.1529 75.2334 73.1529C76.1659 73.1529 76.853 73.3921 77.2948 73.8707C77.7488 74.3492 77.9757 75.0854 77.9757 76.0792V81.6191H76.9451V76.1897C76.9451 75.4044 76.7794 74.8523 76.4481 74.5332C76.1168 74.2019 75.577 74.0363 74.8285 74.0363C74.3254 74.0363 73.8469 74.1283 73.3929 74.3124C72.9512 74.4842 72.5708 74.7418 72.2518 75.0854C72.3377 75.3553 72.3806 75.748 72.3806 76.2633V81.6191H71.3868V76.2449C71.3868 75.4105 71.2518 74.8338 70.9819 74.5148C70.7119 74.1958 70.2273 74.0363 69.5279 74.0363C69.0493 74.0363 68.5708 74.1467 68.0923 74.3676ZM87.2751 81.3431C86.5144 81.6498 85.7046 81.8032 84.8457 81.8032C83.361 81.8032 82.2751 81.4474 81.588 80.7357C80.9132 80.0118 80.5757 78.9075 80.5757 77.4228C80.5757 74.5762 81.8457 73.1529 84.3856 73.1529C85.5144 73.1529 86.361 73.4596 86.9254 74.0731C87.5021 74.6866 87.7905 75.5026 87.7905 76.521V77.9566H81.5696C81.6187 79.024 81.907 79.8032 82.4346 80.294C82.9745 80.7848 83.858 81.0302 85.085 81.0302C85.7966 81.0302 86.5267 80.8829 87.2751 80.5885V81.3431ZM82.2138 74.7909C81.7843 75.3553 81.5696 76.159 81.5696 77.202H86.8518V76.4289C86.8518 75.6437 86.6494 75.0302 86.2445 74.5884C85.8518 74.1467 85.2383 73.9259 84.404 73.9259C83.3856 73.9259 82.6555 74.2142 82.2138 74.7909ZM92.8424 74.3676C92.3638 74.5762 91.9466 74.8645 91.5908 75.2326V81.6191H90.5233V73.3369H91.4436L91.5356 74.3124C92.0019 73.9443 92.4988 73.6621 93.0264 73.4657C93.554 73.2572 94.1736 73.1529 94.8853 73.1529C95.8792 73.1529 96.597 73.3921 97.0387 73.8707C97.4927 74.3369 97.7197 75.0854 97.7197 76.1161V81.6191H96.689V76.2081C96.689 75.4105 96.5233 74.8523 96.1921 74.5332C95.8608 74.2019 95.2534 74.0363 94.37 74.0363C93.8301 74.0363 93.3209 74.1467 92.8424 74.3676ZM104.911 81.5823C104.396 81.7296 103.948 81.8032 103.568 81.8032C102.844 81.8032 102.285 81.5946 101.893 81.1774C101.5 80.7602 101.304 80.1774 101.304 79.429V74.2203H100.034V73.3369H101.304V71.1283L102.334 70.8522V73.3369H104.672L104.635 74.2203H102.334V79.3737C102.334 80.4167 102.868 80.9382 103.936 80.9382C104.206 80.9382 104.531 80.8707 104.911 80.7357V81.5823ZM119.335 80.8461C118.808 81.3615 117.998 81.6191 116.906 81.6191H111.66V70.3553H116.593C117.66 70.3553 118.446 70.6068 118.949 71.1099C119.452 71.6007 119.703 72.3308 119.703 73.3001C119.703 73.9136 119.574 74.4289 119.317 74.8461C119.071 75.2633 118.716 75.5762 118.249 75.7848C119.513 76.0547 120.145 76.932 120.145 78.4167C120.145 79.5087 119.875 80.3185 119.335 80.8461ZM118.212 71.7173C117.869 71.3614 117.249 71.1835 116.354 71.1835H112.673V75.3983H116.63C118.028 75.3983 118.728 74.7234 118.728 73.3737C118.728 72.6253 118.556 72.0731 118.212 71.7173ZM118.47 76.6682C118.041 76.3492 117.396 76.1897 116.538 76.1897H112.673V80.7909H116.777C117.587 80.7909 118.176 80.6007 118.544 80.2204C118.924 79.84 119.114 79.2265 119.114 78.3799C119.114 77.5578 118.9 76.9872 118.47 76.6682ZM124.824 84.2695C124.456 84.5517 124.014 84.6928 123.499 84.6928C122.996 84.6928 122.567 84.6253 122.211 84.4903V83.6437C122.505 83.7664 122.855 83.8277 123.26 83.8277C123.628 83.8277 123.935 83.7357 124.18 83.5517C124.426 83.3799 124.634 83.1406 124.806 82.8339C124.99 82.5271 125.205 82.0977 125.45 81.5455L121.861 73.3369H122.965L125.965 80.4596L129.094 73.3369H130.162L126.665 81.3063C126.333 82.0793 126.033 82.6989 125.763 83.1652C125.505 83.6314 125.192 83.9995 124.824 84.2695ZM2.50816 94.7376V101.619H1.74208V93.5357H2.60062L5.45361 99.4002L8.26697 93.5357H9.1255V101.619H8.39905V94.7376L5.73098 100.206H5.16302L2.50816 94.7376ZM16.0412 100.985C15.5921 101.496 14.8788 101.751 13.9014 101.751C12.9328 101.751 12.2196 101.491 11.7617 100.972C11.3038 100.452 11.0749 99.6775 11.0749 98.6473C11.0749 97.617 11.3038 96.8422 11.7617 96.3226C12.2196 95.8031 12.9328 95.5433 13.9014 95.5433C14.87 95.5433 15.5789 95.8031 16.028 96.3226C16.4858 96.8422 16.7148 97.617 16.7148 98.6473C16.7148 99.6863 16.4902 100.466 16.0412 100.985ZM12.3164 100.523C12.6334 100.919 13.1618 101.117 13.9014 101.117C14.6411 101.117 15.1738 100.919 15.4996 100.523C15.8254 100.118 15.9883 99.4926 15.9883 98.6473C15.9883 97.802 15.8254 97.1812 15.4996 96.7849C15.1826 96.3799 14.6499 96.1773 13.9014 96.1773C13.1706 96.1773 12.6422 96.3799 12.3164 96.7849C11.9994 97.1812 11.8409 97.802 11.8409 98.6473C11.8409 99.4926 11.9994 100.118 12.3164 100.523ZM20.3294 96.4151C19.986 96.5648 19.6866 96.7717 19.4313 97.0359V101.619H18.6652V93.1659H19.4313V96.3623C19.7394 96.0981 20.0785 95.8956 20.4483 95.7547C20.8181 95.6138 21.2496 95.5433 21.7427 95.5433C22.4647 95.5433 22.9931 95.715 23.3277 96.0585C23.6623 96.4019 23.8296 96.9478 23.8296 97.6963V101.619H23.0899V97.7359C23.0899 97.1636 22.9711 96.7629 22.7333 96.534C22.4956 96.2962 22.0597 96.1773 21.4257 96.1773C21.0383 96.1773 20.6728 96.2566 20.3294 96.4151ZM28.9423 101.54C28.5637 101.681 28.1058 101.751 27.5687 101.751C26.9699 101.751 26.4768 101.615 26.0893 101.342C25.7107 101.06 25.5214 100.629 25.5214 100.047C25.5214 99.4134 25.7107 98.9643 26.0893 98.7001C26.4768 98.4271 27.0139 98.2907 27.7008 98.2907H29.8801V97.6435C29.8801 97.256 29.8273 96.9522 29.7216 96.7321C29.616 96.5119 29.431 96.3534 29.1669 96.2566C28.9027 96.1509 28.5241 96.0981 28.031 96.0981C27.3617 96.0981 26.7498 96.2038 26.195 96.4151V95.8735C26.7145 95.6534 27.3882 95.5433 28.2159 95.5433C29.026 95.5433 29.6248 95.715 30.0122 96.0585C30.3996 96.3931 30.5934 96.939 30.5934 97.6963V101.619H29.9726L29.9065 100.866C29.6424 101.166 29.321 101.39 28.9423 101.54ZM26.2346 100.034C26.2346 100.818 26.7542 101.21 27.7932 101.21C28.2511 101.21 28.6474 101.139 28.982 100.998C29.3166 100.857 29.616 100.633 29.8801 100.325V98.819H27.8196C27.3089 98.819 26.9171 98.907 26.6441 99.0832C26.3711 99.2505 26.2346 99.5675 26.2346 100.034ZM34.3887 96.4151C34.0453 96.5736 33.7371 96.7805 33.4641 97.0359V101.619H32.7376V95.6754H33.3981L33.4641 96.3755C34.1421 95.8207 34.8642 95.5433 35.6303 95.5433C36.0705 95.5433 36.4139 95.6138 36.6605 95.7547C36.9159 95.8956 37.1052 96.1069 37.2285 96.3887C37.8889 95.8251 38.6505 95.5433 39.5135 95.5433C40.1827 95.5433 40.6758 95.715 40.9928 96.0585C41.3186 96.4019 41.4815 96.9302 41.4815 97.6435V101.619H40.7419V97.7227C40.7419 97.1592 40.623 96.7629 40.3852 96.534C40.1475 96.2962 39.76 96.1773 39.2229 96.1773C38.8619 96.1773 38.5185 96.2434 38.1927 96.3755C37.8757 96.4987 37.6027 96.6837 37.3737 96.9302C37.4354 97.1239 37.4662 97.4057 37.4662 97.7755V101.619H36.753V97.7623C36.753 97.1636 36.6561 96.7497 36.4624 96.5208C36.2687 96.2918 35.9208 96.1773 35.4189 96.1773C35.0755 96.1773 34.7321 96.2566 34.3887 96.4151ZM45.2752 96.4151C44.9318 96.5736 44.6236 96.7805 44.3506 97.0359V101.619H43.6241V95.6754H44.2846L44.3506 96.3755C45.0286 95.8207 45.7507 95.5433 46.5168 95.5433C46.957 95.5433 47.3004 95.6138 47.547 95.7547C47.8024 95.8956 47.9917 96.1069 48.115 96.3887C48.7754 95.8251 49.537 95.5433 50.4 95.5433C51.0692 95.5433 51.5623 95.715 51.8793 96.0585C52.2051 96.4019 52.368 96.9302 52.368 97.6435V101.619H51.6284V97.7227C51.6284 97.1592 51.5095 96.7629 51.2717 96.534C51.034 96.2962 50.6465 96.1773 50.1094 96.1773C49.7484 96.1773 49.405 96.2434 49.0792 96.3755C48.7622 96.4987 48.4892 96.6837 48.2602 96.9302C48.3219 97.1239 48.3527 97.4057 48.3527 97.7755V101.619H47.6395V97.7623C47.6395 97.1636 47.5426 96.7497 47.3489 96.5208C47.1552 96.2918 46.8073 96.1773 46.3054 96.1773C45.962 96.1773 45.6186 96.2566 45.2752 96.4151ZM57.4871 101.54C57.1085 101.681 56.6506 101.751 56.1135 101.751C55.5147 101.751 55.0216 101.615 54.6342 101.342C54.2555 101.06 54.0662 100.629 54.0662 100.047C54.0662 99.4134 54.2555 98.9643 54.6342 98.7001C55.0216 98.4271 55.5587 98.2907 56.2456 98.2907H58.4249V97.6435C58.4249 97.256 58.3721 96.9522 58.2664 96.7321C58.1608 96.5119 57.9759 96.3534 57.7117 96.2566C57.4475 96.1509 57.0689 96.0981 56.5758 96.0981C55.9066 96.0981 55.2946 96.2038 54.7398 96.4151V95.8735C55.2594 95.6534 55.933 95.5433 56.7607 95.5433C57.5708 95.5433 58.1696 95.715 58.557 96.0585C58.9445 96.3931 59.1382 96.939 59.1382 97.6963V101.619H58.5174L58.4514 100.866C58.1872 101.166 57.8658 101.39 57.4871 101.54ZM54.7795 100.034C54.7795 100.818 55.299 101.21 56.338 101.21C56.7959 101.21 57.1922 101.139 57.5268 100.998C57.8614 100.857 58.1608 100.633 58.4249 100.325V98.819H56.3644C55.8537 98.819 55.4619 98.907 55.1889 99.0832C54.9159 99.2505 54.7795 99.5675 54.7795 100.034ZM64.8355 101.566C64.5009 101.69 64.109 101.751 63.6599 101.751C62.8675 101.751 62.2291 101.509 61.7447 101.025C61.2693 100.532 61.0315 99.77 61.0315 98.7397C61.0315 97.7623 61.2604 96.9874 61.7183 96.4151C62.1762 95.8339 62.8586 95.5433 63.7656 95.5433C64.1795 95.5433 64.5317 95.5874 64.8223 95.6754C65.1217 95.7635 65.421 95.9176 65.7204 96.1377V93.1659H66.4469V101.619H65.8129L65.7601 100.959C65.4783 101.232 65.1701 101.434 64.8355 101.566ZM61.7976 98.7397C61.7976 100.325 62.4844 101.117 63.8581 101.117C64.6065 101.117 65.2273 100.857 65.7204 100.338V96.8113C65.4739 96.6 65.2185 96.4415 64.9544 96.3358C64.6902 96.2302 64.3688 96.1773 63.9902 96.1773C63.2769 96.1773 62.731 96.3887 62.3523 96.8113C61.9825 97.234 61.7976 97.8768 61.7976 98.7397ZM76.376 101.196C75.8741 101.566 75.1344 101.751 74.157 101.751C73.2324 101.751 72.4619 101.628 71.8456 101.381V100.747C72.594 101.003 73.3469 101.13 74.1042 101.13C75.6363 101.13 76.4024 100.602 76.4024 99.5454C76.4024 99.0611 76.2219 98.6913 75.8609 98.4359C75.5087 98.1806 74.9055 97.956 74.0513 97.7623C73.162 97.551 72.5368 97.2824 72.1758 96.9566C71.8147 96.6308 71.6342 96.1773 71.6342 95.5962C71.6342 94.9093 71.872 94.3766 72.3475 93.998C72.8318 93.6105 73.5582 93.4168 74.5268 93.4168C74.9231 93.4168 75.3237 93.4476 75.7288 93.5093C76.1338 93.5709 76.442 93.6413 76.6534 93.7206V94.3546C76.081 94.1433 75.4206 94.0376 74.6721 94.0376C73.9149 94.0376 73.3469 94.1653 72.9683 94.4206C72.5896 94.6672 72.4003 95.059 72.4003 95.5962C72.4003 95.8956 72.4664 96.1421 72.5984 96.3358C72.7305 96.5208 72.9507 96.6837 73.2588 96.8245C73.5758 96.9654 74.0249 97.1019 74.6061 97.234C75.2489 97.3749 75.7552 97.551 76.125 97.7623C76.4949 97.9649 76.7546 98.2114 76.9043 98.502C77.0628 98.7838 77.1421 99.1316 77.1421 99.5454C77.1421 100.276 76.8867 100.827 76.376 101.196ZM82.0592 101.54C81.6805 101.681 81.2226 101.751 80.6855 101.751C80.0867 101.751 79.5936 101.615 79.2062 101.342C78.8275 101.06 78.6382 100.629 78.6382 100.047C78.6382 99.4134 78.8275 98.9643 79.2062 98.7001C79.5936 98.4271 80.1308 98.2907 80.8176 98.2907H82.9969V97.6435C82.9969 97.256 82.9441 96.9522 82.8384 96.7321C82.7328 96.5119 82.5479 96.3534 82.2837 96.2566C82.0195 96.1509 81.6409 96.0981 81.1478 96.0981C80.4786 96.0981 79.8666 96.2038 79.3118 96.4151V95.8735C79.8314 95.6534 80.505 95.5433 81.3327 95.5433C82.1428 95.5433 82.7416 95.715 83.129 96.0585C83.5165 96.3931 83.7102 96.939 83.7102 97.6963V101.619H83.0894L83.0234 100.866C82.7592 101.166 82.4378 101.39 82.0592 101.54ZM79.3515 100.034C79.3515 100.818 79.871 101.21 80.91 101.21C81.3679 101.21 81.7642 101.139 82.0988 100.998C82.4334 100.857 82.7328 100.633 82.9969 100.325V98.819H80.9365C80.4257 98.819 80.0339 98.907 79.7609 99.0832C79.488 99.2505 79.3515 99.5675 79.3515 100.034ZM89.4075 101.566C89.0729 101.69 88.681 101.751 88.232 101.751C87.4395 101.751 86.8011 101.509 86.3168 101.025C85.8413 100.532 85.6035 99.77 85.6035 98.7397C85.6035 97.7623 85.8325 96.9874 86.2903 96.4151C86.7482 95.8339 87.4307 95.5433 88.3376 95.5433C88.7515 95.5433 89.1037 95.5874 89.3943 95.6754C89.6937 95.7635 89.9931 95.9176 90.2924 96.1377V93.1659H91.0189V101.619H90.3849L90.3321 100.959C90.0503 101.232 89.7421 101.434 89.4075 101.566ZM86.3696 98.7397C86.3696 100.325 87.0564 101.117 88.4301 101.117C89.1786 101.117 89.7993 100.857 90.2924 100.338V96.8113C90.0459 96.6 89.7905 96.4415 89.5264 96.3358C89.2622 96.2302 88.9408 96.1773 88.5622 96.1773C87.8489 96.1773 87.303 96.3887 86.9243 96.8113C86.5545 97.234 86.3696 97.8768 86.3696 98.7397ZM97.7765 101.421C97.2305 101.641 96.6494 101.751 96.033 101.751C94.9675 101.751 94.1882 101.496 93.6951 100.985C93.2108 100.466 92.9687 99.6731 92.9687 98.6077C92.9687 96.5648 93.88 95.5433 95.7028 95.5433C96.5129 95.5433 97.1205 95.7635 97.5255 96.2038C97.9394 96.644 98.1463 97.2296 98.1463 97.9605V98.9907H93.6819C93.7171 99.7568 93.9241 100.316 94.3027 100.668C94.6902 101.02 95.3241 101.196 96.2047 101.196C96.7154 101.196 97.2393 101.091 97.7765 100.879V101.421ZM94.1442 96.7189C93.836 97.1239 93.6819 97.7007 93.6819 98.4492H97.4727V97.8944C97.4727 97.3309 97.3274 96.8906 97.0368 96.5736C96.755 96.2566 96.3148 96.0981 95.716 96.0981C94.9851 96.0981 94.4612 96.305 94.1442 96.7189ZM104.374 103.495C103.942 103.715 103.278 103.825 102.379 103.825C101.384 103.825 100.623 103.724 100.094 103.521V102.966C100.728 103.178 101.481 103.283 102.353 103.283C103.049 103.283 103.555 103.222 103.872 103.098C104.198 102.984 104.361 102.746 104.361 102.385C104.361 102.077 104.273 101.861 104.096 101.738C103.92 101.624 103.586 101.566 103.093 101.566H101.508C100.935 101.566 100.517 101.487 100.253 101.329C99.9887 101.17 99.8566 100.919 99.8566 100.576C99.8566 100.32 99.9534 100.096 100.147 99.9021C100.341 99.7083 100.614 99.5719 100.966 99.4926C100.27 99.2373 99.9226 98.6341 99.9226 97.6831C99.9226 96.9522 100.125 96.4151 100.53 96.0717C100.944 95.7194 101.574 95.5433 102.419 95.5433C102.701 95.5433 103.027 95.5874 103.396 95.6754H105.457L105.43 96.2302H104.295C104.708 96.5824 104.915 97.0711 104.915 97.6963C104.915 98.3919 104.726 98.9114 104.347 99.2549C103.969 99.5983 103.374 99.77 102.564 99.77C102.291 99.77 102.023 99.7436 101.759 99.6907C101.415 99.726 101.142 99.8096 100.94 99.9417C100.737 100.074 100.636 100.25 100.636 100.47C100.636 100.673 100.715 100.818 100.874 100.906C101.032 100.994 101.314 101.038 101.719 101.038H103.304C103.885 101.038 104.317 101.144 104.598 101.355C104.889 101.566 105.034 101.897 105.034 102.346C105.034 102.9 104.814 103.283 104.374 103.495ZM101.006 98.8718C101.287 99.1184 101.759 99.2417 102.419 99.2417C103.053 99.2417 103.515 99.1316 103.806 98.9114C104.096 98.6825 104.242 98.2686 104.242 97.6699C104.242 97.1063 104.101 96.7013 103.819 96.4547C103.537 96.1993 103.071 96.0717 102.419 96.0717C101.767 96.0717 101.301 96.1949 101.019 96.4415C100.737 96.6881 100.596 97.0975 100.596 97.6699C100.596 98.2158 100.733 98.6165 101.006 98.8718ZM108.905 96.4151C108.561 96.5648 108.262 96.7717 108.007 97.0359V101.619H107.241V93.1659H108.007V96.3623C108.315 96.0981 108.654 95.8956 109.024 95.7547C109.393 95.6138 109.825 95.5433 110.318 95.5433C111.04 95.5433 111.568 95.715 111.903 96.0585C112.238 96.4019 112.405 96.9478 112.405 97.6963V101.619H111.665V97.7359C111.665 97.1636 111.546 96.7629 111.309 96.534C111.071 96.2962 110.635 96.1773 110.001 96.1773C109.614 96.1773 109.248 96.2566 108.905 96.4151ZM115.633 93.364V94.1697H114.8V93.364H115.633ZM115.633 95.6754V101.619H114.893V96.3094H113.955L113.995 95.6754H115.633ZM121 101.54C120.622 101.681 120.164 101.751 119.627 101.751C119.028 101.751 118.535 101.615 118.147 101.342C117.769 101.06 117.579 100.629 117.579 100.047C117.579 99.4134 117.769 98.9643 118.147 98.7001C118.535 98.4271 119.072 98.2907 119.759 98.2907H121.938V97.6435C121.938 97.256 121.885 96.9522 121.78 96.7321C121.674 96.5119 121.489 96.3534 121.225 96.2566C120.961 96.1509 120.582 96.0981 120.089 96.0981C119.42 96.0981 118.808 96.2038 118.253 96.4151V95.8735C118.773 95.6534 119.446 95.5433 120.274 95.5433C121.084 95.5433 121.683 95.715 122.07 96.0585C122.458 96.3931 122.651 96.939 122.651 97.6963V101.619H122.031L121.965 100.866C121.7 101.166 121.379 101.39 121 101.54ZM118.293 100.034C118.293 100.818 118.812 101.21 119.851 101.21C120.309 101.21 120.705 101.139 121.04 100.998C121.375 100.857 121.674 100.633 121.938 100.325V98.819H119.878C119.367 98.819 118.975 98.907 118.702 99.0832C118.429 99.2505 118.293 99.5675 118.293 100.034ZM126.46 96.4151C126.116 96.5648 125.817 96.7717 125.562 97.0359V101.619H124.796V95.6754H125.456L125.522 96.3755C125.857 96.1113 126.213 95.9088 126.592 95.7679C126.971 95.6182 127.415 95.5433 127.926 95.5433C128.639 95.5433 129.154 95.715 129.471 96.0585C129.797 96.3931 129.96 96.9302 129.96 97.6699V101.619H129.22V97.7359C129.22 97.1636 129.102 96.7629 128.864 96.534C128.626 96.2962 128.19 96.1773 127.556 96.1773C127.169 96.1773 126.803 96.2566 126.46 96.4151Z" fill="white"/>
<defs>
<clipPath id="clip0_264_521">
<rect width="131" height="62" fill="white" transform="translate(0 0.619141)"/>
</clipPath>
<clipPath id="clip1_264_521">
<rect width="131" height="54.5101" fill="white" transform="translate(0 0.423828)"/>
</clipPath>
</defs>
</svg>
